<svg id="Layer_1" data-name="Layer 1" xmlns="http://www.w3.org/2000/svg" viewBox="0 0 1031.91 602.38"><defs><style>.cls-1{fill:none;stroke:#2ab5b3;stroke-miterlimit:10;stroke-width:4px;}.cls-2{fill:#2ab5b3;}</style></defs><title>aboutus icon 4pt</title><path class="cls-1" d="M418.56,471.69c14.21-54.58,64.55-51,64.55-51s182.36-8.07,237.23,0S772,499.77,772,499.77V717.64H418.56Z" transform="translate(-79.32 -129.72)"/><circle class="cls-1" cx="515.97" cy="132.72" r="130.72"/><path class="cls-1" d="M824.06,508c11.6-42.11,49.81-39.35,49.81-39.35s140.72-6.22,183.05,0,39.85,61,39.85,61V697.74H824.06Z" transform="translate(-79.32 -129.72)"/><circle class="cls-1" cx="881.11" cy="216.79" r="100.86"/><path class="cls-1" d="M93.78,502.12c10.39-42.11,49.81-39.35,49.81-39.35s140.71-6.22,183,0,39.85,61,39.85,61V691.9H93.78Z" transform="translate(-79.32 -129.72)"/><circle class="cls-1" cx="150.83" cy="210.94" r="100.86"/><rect class="cls-2" x="1086.55" y="687.51" width="20.45" height="20.45" transform="translate(-251.46 850.18) rotate(-45)"/><rect class="cls-2" x="813.84" y="687.51" width="20.45" height="20.45" transform="translate(-331.33 657.35) rotate(-45)"/><rect class="cls-2" x="761.8" y="707.41" width="20.45" height="20.45" transform="translate(-360.64 626.38) rotate(-45)"/><rect class="cls-2" x="408.33" y="707.41" width="20.45" height="20.45" transform="translate(-464.17 376.44) rotate(-45)"/><rect class="cls-2" x="356.29" y="681.67" width="20.45" height="20.45" transform="translate(-461.21 332.1) rotate(-45)"/><rect class="cls-2" x="83.55" y="681.67" width="20.45" height="20.45" transform="translate(-541.1 139.25) rotate(-45)"/></svg>