<svg id="Layer_2" data-name="Layer 2" xmlns="http://www.w3.org/2000/svg" viewBox="0 0 810.26 766.93"><defs><style>.cls-1{fill:none;}.cls-1,.cls-3{stroke:#2ab5b3;stroke-miterlimit:10;stroke-width:5px;}.cls-2,.cls-3{fill:#2ab5b3;}</style></defs><title>blog 5pt</title><path class="cls-1" d="M657.78,477.76l29.83,147.48,69.61,68.85C614,721,449.72,688,449.72,688L227.88,784.35l75-202C322,611.2,59.18,283.35,422.18,86.72c331-179.26,737.47,143.19,545.4,434.49-20,27.46-55.62,64.83-75.73,75.73l-80.32-82.61Z" transform="translate(-209.29 -32.61)"/><rect class="cls-2" x="643.07" y="461.55" width="29.22" height="29.22" transform="translate(-353.35 571.91) rotate(-45)"/><line class="cls-3" x1="478.32" y1="592.64" x2="602.24" y2="481.72"/><rect class="cls-2" x="673" y="610.63" width="29.22" height="29.22" transform="translate(-450.01 636.74) rotate(-45)"/><rect class="cls-2" x="796.93" y="499.72" width="29.22" height="29.22" transform="translate(-335.28 691.88) rotate(-45)"/><rect class="cls-2" x="439.9" y="318.63" width="29.22" height="29.22" transform="translate(-311.8 386.39) rotate(-45)"/><rect class="cls-2" x="433.24" y="671.37" width="29.22" height="29.22" transform="translate(-563.18 484.99) rotate(-45)"/><rect class="cls-2" x="215.34" y="764.26" width="29.22" height="29.22" transform="translate(-692.69 358.12) rotate(-45)"/><rect class="cls-2" x="288.24" y="567.8" width="29.22" height="29.22" transform="translate(-532.41 352.12) rotate(-45)"/><rect class="cls-2" x="782.93" y="318.63" width="29.22" height="29.22" transform="translate(-211.33 628.94) rotate(-45)"/><rect class="cls-2" x="611.41" y="318.63" width="29.22" height="29.22" transform="translate(-261.57 507.66) rotate(-45)"/><path class="cls-1" d="M757.22,694.09" transform="translate(-209.29 -32.61)"/><polyline class="cls-1" points="602.24 481.72 736.38 620.22 622.57 734.77 478.32 592.63"/><path class="cls-1" d="M831.86,767.37" transform="translate(-209.29 -32.61)"/><path class="cls-1" d="M945.67,652.83l13.87,13.86s39.39,139-110.17,117.66l-17.51-17" transform="translate(-209.29 -32.61)"/><rect class="cls-2" x="822.7" y="752.76" width="29.22" height="29.22" transform="translate(-506.66 784.22) rotate(-45)"/><rect class="cls-2" x="931.07" y="638.22" width="29.22" height="29.22" transform="translate(-393.93 827.3) rotate(-45)"/></svg>