<svg id="Layer_2" data-name="Layer 2" xmlns="http://www.w3.org/2000/svg" viewBox="0 0 1171.5 732.96"><defs><style>.cls-1{fill:#fff;}.cls-2{fill:none;stroke:#2ab5b3;stroke-miterlimit:10;}.cls-3{fill:#2ab5b3;}</style></defs><title>brain 1pt</title><path class="cls-1" d="M840.67,125" transform="translate(-9.36 -71.69)"/><polyline class="cls-2" points="995.61 578.87 995.61 633 1078.76 586.94 1078.76 514.65 1164.19 471.64 1164.19 399.29 1164.19 256.39 1078.76 211.68 1078.76 145.84 995.61 103.64 995.61 53.28 911.2 7.31 831.31 53.28 831.31 145.84 831.31 236.94 911.2 276.12 911.2 321.99"/><polyline class="cls-2" points="831.31 236.94 831.31 321.99 831.31 398.13 831.31 478.87"/><polyline class="cls-2" points="831.31 478.87 831.31 597.22 831.31 673 911.2 725.66 995.61 673 995.61 633"/><polyline class="cls-2" points="1078.76 514.65 995.61 478.87 911.2 525.66 911.2 611.68"/><path class="cls-2" d="M1107.72,510.19" transform="translate(-9.36 -71.69)"/><path class="cls-2" d="M1173.55,471" transform="translate(-9.36 -71.69)"/><polyline class="cls-2" points="995.61 478.87 995.61 426.57 1077.34 377.92 1078.76 311.89"/><polyline class="cls-2" points="995.61 341.25 995.61 250.32 1078.76 211.68"/><polyline class="cls-2" points="911.2 112.81 911.2 197.22 995.61 250.32"/><circle class="cls-2" cx="911.2" cy="342.17" r="24.43"/><circle class="cls-2" cx="994.98" cy="555.93" r="24.43"/><circle class="cls-2" cx="931.65" cy="434.27" r="24.43"/><circle class="cls-2" cx="911.2" cy="633" r="24.43"/><circle class="cls-2" cx="1077.34" cy="432.08" r="24.43"/><circle class="cls-2" cx="1078.76" cy="292.17" r="24.43"/><circle class="cls-2" cx="995.61" cy="362.57" r="24.43"/><circle class="cls-2" cx="994.98" cy="172.78" r="24.43"/><circle class="cls-2" cx="911.2" cy="91.44" r="24.43"/><line class="cls-2" x1="995.61" y1="103.64" x2="995.61" y2="152.53"/><line class="cls-2" x1="913.46" y1="432.08" x2="829.05" y2="478.87"/><line class="cls-2" x1="1101.78" y1="432.08" x2="1164.19" y2="399.28"/><rect class="cls-3" x="835.5" y="119.8" width="10.34" height="10.34" transform="translate(1337.39 736.08) rotate(-135)"/><rect class="cls-3" x="999.8" y="646.88" width="10.34" height="10.34" transform="translate(1245.15 1752.05) rotate(-135)"/><rect class="cls-3" x="915.39" y="675.08" width="10.34" height="10.34" transform="translate(1081.13 1740.51) rotate(-135)"/><rect class="cls-3" x="999.17" y="740.24" width="10.34" height="10.34" transform="translate(1178.07 1910.97) rotate(-135)"/><rect class="cls-3" x="1082.95" y="654.19" width="10.34" height="10.34" transform="translate(1381.93 1823.32) rotate(-135)"/><rect class="cls-3" x="999.17" y="699.51" width="10.34" height="10.34" transform="translate(1206.87 1841.45) rotate(-135)"/><rect class="cls-3" x="915.39" y="792.18" width="10.34" height="10.34" transform="translate(998.33 1940.4) rotate(-135)"/><rect class="cls-3" x="835.5" y="740.24" width="10.34" height="10.34" transform="translate(898.67 1795.24) rotate(-135)"/><rect class="cls-3" x="1168.38" y="538.08" width="10.34" height="10.34" transform="translate(1609.88 1685.52) rotate(-135)"/><rect class="cls-3" x="1082.95" y="581.15" width="10.34" height="10.34" transform="translate(1433.58 1698.63) rotate(-135)"/><rect class="cls-3" x="915.39" y="591.38" width="10.34" height="10.34" transform="translate(1140.32 1597.61) rotate(-135)"/><rect class="cls-3" x="999.17" y="545.39" width="10.34" height="10.34" transform="translate(1315.85 1578.34) rotate(-135)"/><rect class="cls-3" x="999.17" y="493.49" width="10.34" height="10.34" transform="translate(1352.55 1489.74) rotate(-135)"/><rect class="cls-3" x="1105.97" y="498.6" width="10.34" height="10.34" transform="translate(1531.25 1573.98) rotate(-135)"/><rect class="cls-3" x="911.84" y="500.36" width="10.34" height="10.34" transform="translate(1198.61 1439.73) rotate(-135)"/><rect class="cls-3" x="835.5" y="545.39" width="10.34" height="10.34" transform="translate(1036.45 1462.61) rotate(-135)"/><rect class="cls-3" x="1168.38" y="465.8" width="10.34" height="10.34" transform="translate(1660.99 1562.14) rotate(-135)"/><rect class="cls-3" x="1081.53" y="444.5" width="10.34" height="10.34" transform="translate(1527.79 1464.36) rotate(-135)"/><rect class="cls-3" x="1082.53" y="382.22" width="10.34" height="10.34" transform="translate(1573.54 1358.74) rotate(-135)"/><rect class="cls-3" x="1168.38" y="324.14" width="10.34" height="10.34" transform="translate(1761.16 1320.31) rotate(-135)"/><rect class="cls-3" x="999.17" y="404.66" width="10.34" height="10.34" transform="translate(1415.36 1338.1) rotate(-135)"/><rect class="cls-3" x="915.39" y="384.82" width="10.34" height="10.34" transform="translate(1286.37 1245) rotate(-135)"/><rect class="cls-3" x="1082.95" y="278.19" width="10.34" height="10.34" transform="translate(1647.8 1181.46) rotate(-135)"/><rect class="cls-3" x="999.17" y="316.84" width="10.34" height="10.34" transform="translate(1477.46 1188.18) rotate(-135)"/><rect class="cls-3" x="1082.95" y="211.74" width="10.34" height="10.34" transform="translate(1694.79 1068.01) rotate(-135)"/><rect class="cls-3" x="999.8" y="170.16" width="10.34" height="10.34" transform="translate(1582.25 938.23) rotate(-135)"/><rect class="cls-3" x="999.17" y="214.87" width="10.34" height="10.34" transform="translate(1549.56 1014.11) rotate(-135)"/><rect class="cls-3" x="915.39" y="263.73" width="10.34" height="10.34" transform="translate(1371.99 1038.29) rotate(-135)"/><rect class="cls-3" x="835.77" y="303.45" width="10.34" height="10.34" transform="translate(1207.98 1049.8) rotate(-135)"/><rect class="cls-3" x="915.39" y="73.83" width="10.34" height="10.34" transform="translate(1506.28 714.1) rotate(-135)"/><rect class="cls-3" x="915.39" y="182.39" width="10.34" height="10.34" transform="translate(1429.51 899.43) rotate(-135)"/><rect class="cls-3" x="999.17" y="119.8" width="10.34" height="10.34" transform="translate(1616.79 851.81) rotate(-135)"/><rect class="cls-3" x="915.39" y="342.63" width="10.34" height="10.34" transform="translate(1316.2 1172.98) rotate(-135)"/><path class="cls-1" d="M349.55,125" transform="translate(-9.36 -71.69)"/><polyline class="cls-2" points="175.89 578.87 175.89 633 92.74 586.94 92.74 514.65 7.31 471.64 7.31 399.29 7.31 256.39 92.74 211.68 92.74 145.84 175.89 103.64 175.89 53.28 260.3 7.31 340.19 53.28 340.19 145.84 340.19 236.94 260.3 276.12 260.3 321.99"/><polyline class="cls-2" points="340.19 236.94 340.19 321.99 340.19 398.13 340.19 478.87"/><polyline class="cls-2" points="340.19 478.87 340.19 597.22 340.19 673 260.3 725.66 175.89 673 175.89 633"/><polyline class="cls-2" points="92.74 514.65 175.89 478.87 260.3 525.66 260.3 611.68"/><path class="cls-2" d="M82.5,510.19" transform="translate(-9.36 -71.69)"/><path class="cls-2" d="M16.67,471" transform="translate(-9.36 -71.69)"/><polyline class="cls-2" points="175.89 478.87 175.89 426.57 94.16 377.92 92.74 311.89"/><polyline class="cls-2" points="175.89 341.25 175.89 250.32 92.74 211.68"/><polyline class="cls-2" points="260.3 112.81 260.3 197.22 175.89 250.32"/><circle class="cls-2" cx="260.3" cy="342.17" r="24.43"/><circle class="cls-2" cx="176.52" cy="555.93" r="24.43"/><circle class="cls-2" cx="239.85" cy="434.27" r="24.43"/><circle class="cls-2" cx="260.3" cy="633" r="24.43"/><circle class="cls-2" cx="94.16" cy="432.08" r="24.43"/><circle class="cls-2" cx="92.74" cy="292.17" r="24.43"/><circle class="cls-2" cx="175.89" cy="362.57" r="24.43"/><circle class="cls-2" cx="176.52" cy="172.78" r="24.43"/><circle class="cls-2" cx="260.3" cy="91.44" r="24.43"/><line class="cls-2" x1="175.89" y1="103.64" x2="175.89" y2="152.53"/><line class="cls-2" x1="258.04" y1="432.08" x2="342.45" y2="478.87"/><line class="cls-2" x1="69.72" y1="432.08" x2="7.31" y2="399.28"/><rect class="cls-3" x="344.38" y="119.8" width="10.34" height="10.34" transform="translate(4.66 212.08) rotate(-45)"/><rect class="cls-3" x="180.08" y="646.88" width="10.34" height="10.34" transform="translate(-416.17 250.29) rotate(-45)"/><rect class="cls-3" x="264.49" y="675.08" width="10.34" height="10.34" transform="translate(-411.39 318.23) rotate(-45)"/><rect class="cls-3" x="180.71" y="740.24" width="10.34" height="10.34" transform="translate(-482 278.07) rotate(-45)"/><rect class="cls-3" x="96.93" y="654.19" width="10.34" height="10.34" transform="translate(-445.69 193.63) rotate(-45)"/><rect class="cls-3" x="180.71" y="699.51" width="10.34" height="10.34" transform="translate(-453.2 266.15) rotate(-45)"/><rect class="cls-3" x="264.49" y="792.18" width="10.34" height="10.34" transform="translate(-494.18 352.53) rotate(-45)"/><rect class="cls-3" x="344.38" y="740.24" width="10.34" height="10.34" transform="translate(-434.06 393.81) rotate(-45)"/><rect class="cls-3" x="11.5" y="538.08" width="10.34" height="10.34" transform="translate(-388.61 99.21) rotate(-45)"/><rect class="cls-3" x="96.93" y="581.15" width="10.34" height="10.34" transform="translate(-394.04 172.24) rotate(-45)"/><rect class="cls-3" x="264.49" y="591.38" width="10.34" height="10.34" transform="translate(-352.2 293.71) rotate(-45)"/><rect class="cls-3" x="180.71" y="545.39" width="10.34" height="10.34" transform="translate(-344.21 221) rotate(-45)"/><rect class="cls-3" x="180.71" y="493.49" width="10.34" height="10.34" transform="translate(-307.52 205.8) rotate(-45)"/><rect class="cls-3" x="73.91" y="498.6" width="10.34" height="10.34" transform="translate(-342.41 131.78) rotate(-45)"/><rect class="cls-3" x="268.04" y="500.36" width="10.34" height="10.34" transform="translate(-286.8 269.57) rotate(-45)"/><rect class="cls-3" x="344.38" y="545.39" width="10.34" height="10.34" transform="translate(-296.28 336.74) rotate(-45)"/><rect class="cls-3" x="11.5" y="465.8" width="10.34" height="10.34" transform="translate(-337.5 78.04) rotate(-45)"/><rect class="cls-3" x="98.35" y="444.5" width="10.34" height="10.34" transform="translate(-297 133.21) rotate(-45)"/><rect class="cls-3" x="97.35" y="382.22" width="10.34" height="10.34" transform="translate(-253.25 114.26) rotate(-45)"/><rect class="cls-3" x="11.5" y="324.14" width="10.34" height="10.34" transform="translate(-237.33 36.55) rotate(-45)"/><rect class="cls-3" x="180.71" y="404.66" width="10.34" height="10.34" transform="translate(-244.71 179.78) rotate(-45)"/><rect class="cls-3" x="264.49" y="384.82" width="10.34" height="10.34" transform="translate(-206.14 233.21) rotate(-45)"/><rect class="cls-3" x="96.93" y="278.19" width="10.34" height="10.34" transform="translate(-179.82 83.51) rotate(-45)"/><rect class="cls-3" x="180.71" y="316.84" width="10.34" height="10.34" transform="translate(-182.61 154.06) rotate(-45)"/><rect class="cls-3" x="96.93" y="211.74" width="10.34" height="10.34" transform="translate(-132.83 64.04) rotate(-45)"/><rect class="cls-3" x="180.08" y="170.16" width="10.34" height="10.34" transform="translate(-79.07 110.66) rotate(-45)"/><rect class="cls-3" x="180.71" y="214.87" width="10.34" height="10.34" transform="translate(-110.5 124.2) rotate(-45)"/><rect class="cls-3" x="264.49" y="263.73" width="10.34" height="10.34" transform="translate(-120.52 197.75) rotate(-45)"/><rect class="cls-3" x="344.11" y="303.45" width="10.34" height="10.34" transform="translate(-125.28 265.68) rotate(-45)"/><rect class="cls-3" x="264.49" y="73.83" width="10.34" height="10.34" transform="translate(13.77 142.13) rotate(-45)"/><rect class="cls-3" x="264.49" y="182.39" width="10.34" height="10.34" transform="translate(-63 173.92) rotate(-45)"/><rect class="cls-3" x="180.71" y="119.8" width="10.34" height="10.34" transform="translate(-43.28 96.35) rotate(-45)"/><rect class="cls-3" x="264.49" y="342.63" width="10.34" height="10.34" transform="translate(-176.31 220.86) rotate(-45)"/></svg>