<svg id="Layer_1" data-name="Layer 1" xmlns="http://www.w3.org/2000/svg" viewBox="0 0 1146.74 332.01"><defs><style>.cls-1{fill:none;stroke:#2ab5b3;stroke-miterlimit:10;stroke-width:0.25px;}.cls-2{fill:#2ab5b3;}</style></defs><title>background</title><polyline class="cls-1" points="401.33 276.43 338.94 327.49 241.58 239.56 130.04 327.49 44.02 239.56 35.51 327.49 3.2 247.12 50.63 208.36 117.19 248.07"/><path class="cls-1" d="M378.44,396.15" transform="translate(-26.26 -227.29)"/><path class="cls-1" d="M423.81,254.16" transform="translate(-26.26 -227.29)"/><path class="cls-1" d="M427.6,423.37" transform="translate(-26.26 -227.29)"/><polyline class="cls-1" points="3.2 73.19 64.81 50.5 124.36 111.94 3.2 147.87 50.63 208.36 231.18 138.41 182.03 79.59 117.19 248.07 203.77 234.83 182.03 307.62 344.62 269.81 305.86 152.59 273.72 217.82"/><polygon class="cls-1" points="44.02 239.56 117.19 248.07 130.04 327.49 203.77 234.83 147.67 168.86 124.36 111.94 50.63 208.36 44.02 239.56"/><polyline class="cls-1" points="344.62 269.81 367.27 201.88 305.86 152.59"/><path class="cls-1" d="M427.6,503.71" transform="translate(-26.26 -227.29)"/><polyline class="cls-1" points="338.94 327.49 344.62 269.81 241.58 239.56 273.72 217.82 344.62 269.81 440.09 317.56 401.33 276.43"/><polyline class="cls-1" points="289.31 282.67 266.16 327.49 182.03 307.62 202.26 327.49"/><line class="cls-1" x1="130.04" y1="327.49" x2="182.03" y2="307.62"/><polyline class="cls-1" points="273.72 217.82 203.77 234.83 305.86 152.59 147.67 168.86"/><polyline class="cls-1" points="305.86 152.59 231.18 138.41 324.76 123.29 305.86 152.59"/><polyline class="cls-1" points="124.36 111.94 99.79 2.29 64.81 50.5 3.2 147.87"/><polyline class="cls-1" points="182.03 79.59 267.1 75.08 231.18 138.41"/><line class="cls-1" x1="267.1" y1="75.08" x2="324.76" y2="123.29"/><polyline class="cls-1" points="1103.63 239.56 1112.14 327.49 1144.45 247.12 1097.01 208.36 1030.45 248.07"/><polyline class="cls-1" points="755.54 317.56 808.7 327.49 906.06 239.56 1017.61 327.49"/><path class="cls-1" d="M821.73,396.15" transform="translate(-26.26 -227.29)"/><path class="cls-1" d="M776.35,254.16" transform="translate(-26.26 -227.29)"/><path class="cls-1" d="M772.57,423.37" transform="translate(-26.26 -227.29)"/><polyline class="cls-1" points="1144.45 73.19 1073.15 99.18 1001.16 168.94 1144.45 147.87 1097.01 208.36 916.46 138.41 965.62 79.59 1030.45 248.07 943.88 234.83 965.62 307.62 816.98 289.08 841.78 152.59 873.92 217.82"/><polygon class="cls-1" points="1103.63 239.56 1030.45 248.07 1017.61 327.49 943.88 234.83 999.97 168.86 1023.28 111.94 1097.01 208.36 1103.63 239.56"/><polyline class="cls-1" points="816.98 289.08 780.38 201.88 841.78 152.59"/><path class="cls-1" d="M781.8,549.46" transform="translate(-26.26 -227.29)"/><polyline class="cls-1" points="873.92 217.82 943.88 234.83 841.78 152.59 999.97 168.86"/><polyline class="cls-1" points="841.78 152.59 916.46 138.41 822.88 123.29 841.78 152.59"/><polyline class="cls-1" points="965.62 79.59 912.74 105.42 916.46 138.41"/><line class="cls-1" x1="912.74" y1="105.42" x2="822.88" y2="123.29"/><path class="cls-1" d="M1056.72,475.36c6.78,2.26,81.68,79.42,81.68,79.42" transform="translate(-26.26 -227.29)"/><polyline class="cls-1" points="816.98 289.08 755.54 317.56 707.55 317.56 816.98 289.08 873.92 217.82 906.06 239.56 816.98 289.08 808.7 327.49"/><polyline class="cls-1" points="847.07 292.84 920.88 326.64 965.62 307.62 1017.61 327.49"/><circle class="cls-2" cx="63.78" cy="50.5" r="5.37"/><circle class="cls-2" cx="705.26" cy="318.98" r="2.29"/><circle class="cls-2" cx="401.33" cy="276.42" r="2.29"/><circle class="cls-2" cx="35.3" cy="326.64" r="2.29"/><circle class="cls-2" cx="2.29" cy="247.49" r="2.29"/><circle class="cls-2" cx="100.11" cy="2.29" r="2.29"/><circle class="cls-2" cx="182.03" cy="79.66" r="2.29"/><circle class="cls-2" cx="267.1" cy="75.08" r="2.29"/><circle class="cls-2" cx="324.76" cy="123.29" r="2.29"/><circle class="cls-2" cx="440.09" cy="317.56" r="2.29"/><circle class="cls-2" cx="384.1" cy="289.66" r="5.37"/><circle class="cls-2" cx="130.04" cy="326.64" r="5.37"/><circle class="cls-2" cx="203.77" cy="234.83" r="5.37"/><circle class="cls-2" cx="305.86" cy="152.59" r="5.37"/><circle class="cls-2" cx="124.36" cy="111.95" r="5.37"/><circle class="cls-2" cx="147.67" cy="168.86" r="5.37"/><circle class="cls-2" cx="344.62" cy="269.81" r="5.37"/><circle class="cls-2" cx="231.18" cy="138.41" r="5.37"/><circle class="cls-2" cx="273.28" cy="217.82" r="2.29"/><circle class="cls-2" cx="202.27" cy="326.64" r="2.29"/><circle class="cls-2" cx="267.1" cy="326.64" r="2.29"/><circle class="cls-2" cx="339.25" cy="326.64" r="2.29"/><circle class="cls-2" cx="289.31" cy="282.67" r="2.29"/><circle class="cls-2" cx="906.06" cy="239.56" r="5.37"/><circle class="cls-2" cx="999.97" cy="168.86" r="5.37"/><circle class="cls-2" cx="49.39" cy="208.36" r="5.37"/><circle class="cls-2" cx="118.99" cy="247.49" r="5.37"/><circle class="cls-2" cx="182.03" cy="307.62" r="5.37"/><circle class="cls-2" cx="3.2" cy="72.79" r="2.29"/><circle class="cls-2" cx="2.29" cy="149.15" r="2.29"/><circle class="cls-2" cx="44.02" cy="240.2" r="2.29"/><circle class="cls-2" cx="189.69" cy="280.38" r="2.29"/><circle class="cls-2" cx="241.58" cy="240.2" r="2.29"/><circle class="cls-2" cx="367.27" cy="202.99" r="2.29"/><polyline class="cls-1" points="1060.22 160.25 1073.15 99.18 1023.28 111.94 981.46 9.38 1073.15 99.18 1144.45 147.87"/><line class="cls-1" x1="1103.63" y1="239.56" x2="1144.45" y2="247.12"/><line class="cls-1" x1="906.06" y1="239.56" x2="965.62" y2="307.62"/><circle class="cls-2" cx="1103.63" cy="239.56" r="2.29"/><circle class="cls-2" cx="1023.28" cy="111.95" r="2.29"/><circle class="cls-2" cx="780.38" cy="201.88" r="2.29"/><circle class="cls-2" cx="981.46" cy="7.08" r="2.29"/><circle class="cls-2" cx="912.74" cy="105.42" r="2.29"/><circle class="cls-2" cx="822.88" cy="123.29" r="2.29"/><circle class="cls-2" cx="965.62" cy="81.88" r="2.29"/><circle class="cls-2" cx="963.32" cy="308.62" r="5.37"/><circle class="cls-2" cx="1028.65" cy="248.07" r="5.37"/><circle class="cls-2" cx="841.78" cy="154.88" r="5.37"/><circle class="cls-2" cx="1071.29" cy="100.05" r="5.37"/><circle class="cls-2" cx="1098.26" cy="208.36" r="5.37"/><circle class="cls-2" cx="1015.62" cy="326.64" r="5.37"/><circle class="cls-2" cx="816.98" cy="287.78" r="5.37"/><circle class="cls-2" cx="849.37" cy="292.84" r="2.29"/><circle class="cls-2" cx="1112.14" cy="326.64" r="2.29"/><circle class="cls-2" cx="1144.45" cy="149.51" r="2.29"/><circle class="cls-2" cx="1038.25" cy="133.36" r="2.29"/><circle class="cls-2" cx="1060.66" cy="160.25" r="2.29"/><circle class="cls-2" cx="757.83" cy="316.69" r="2.29"/><circle class="cls-2" cx="808.79" cy="326.64" r="2.29"/><circle class="cls-2" cx="958.3" cy="280.12" r="2.29"/><circle class="cls-2" cx="943.87" cy="234.83" r="2.29"/><circle class="cls-2" cx="916.46" cy="137.94" r="2.29"/><circle class="cls-2" cx="874.17" cy="217.82" r="2.29"/></svg>