<svg id="Layer_1" data-name="Layer 1" xmlns="http://www.w3.org/2000/svg" viewBox="0 0 618.19 720.93"><defs><style>.cls-1,.cls-2{fill:none;stroke:#2ab5b3;stroke-miterlimit:10;}.cls-1{stroke-width:5px;}.cls-2{stroke-width:0.25px;}.cls-3{fill:#2ab5b3;}</style></defs><title>dataprotection icon 5pt</title><rect class="cls-1" x="14.46" y="265.95" width="589.27" height="440.53"/><line class="cls-1" x1="14.46" y1="623.2" x2="603.73" y2="623.2"/><path class="cls-1" d="M445.76,338.56V174.16s3.07-105.25,168.8-98.76,155.91,98.76,155.91,98.76v164.4" transform="translate(-300.46 -72.61)"/><path class="cls-1" d="M480.13,75.11" transform="translate(-300.46 -72.61)"/><path class="cls-2" d="M538.36,26" transform="translate(-300.46 -72.61)"/><path class="cls-2" d="M669.72,26" transform="translate(-300.46 -72.61)"/><path class="cls-1" d="M737.33,75.11" transform="translate(-300.46 -72.61)"/><path class="cls-1" d="M770.47,155.11" transform="translate(-300.46 -72.61)"/><path class="cls-1" d="M770.47,338.56" transform="translate(-300.46 -72.61)"/><path class="cls-1" d="M626.08,511.31l28.45,69.89H557.81l28.44-69.87" transform="translate(-300.46 -72.61)"/><path class="cls-1" d="M586,512.27a31.07,31.07,0,1,1,40.89-.42" transform="translate(-300.46 -72.61)"/><rect class="cls-3" x="893.97" y="328.33" width="20.45" height="20.45" transform="translate(-275.03 665.92) rotate(-45)"/><rect class="cls-3" x="760.36" y="328.33" width="20.45" height="20.45" transform="translate(-314.16 571.44) rotate(-45)"/><rect class="cls-3" x="435.53" y="328.33" width="20.45" height="20.45" transform="translate(-409.3 341.75) rotate(-45)"/><rect class="cls-3" x="304.7" y="328.33" width="20.45" height="20.45" transform="translate(-447.62 249.24) rotate(-45)"/><rect class="cls-3" x="893.97" y="768.86" width="20.45" height="20.45" transform="translate(-586.52 794.94) rotate(-45)"/><rect class="cls-3" x="304.7" y="768.86" width="20.45" height="20.45" transform="translate(-759.12 378.26) rotate(-45)"/><rect class="cls-3" x="893.97" y="685.58" width="20.45" height="20.45" transform="translate(-527.64 770.55) rotate(-45)"/><rect class="cls-3" x="304.7" y="685.58" width="20.45" height="20.45" transform="translate(-700.23 353.87) rotate(-45)"/></svg>