<svg id="Layer_1" data-name="Layer 1" xmlns="http://www.w3.org/2000/svg" viewBox="0 0 623.69 751.67"><defs><style>.cls-1,.cls-2{fill:none;stroke:#2ab5b3;stroke-miterlimit:10;}.cls-1{stroke-width:0.5px;}.cls-3{fill:#2ab5b3;}</style></defs><title>dataprotection</title><rect class="cls-1" x="17.21" y="294.23" width="589.27" height="440.53"/><line class="cls-1" x1="17.21" y1="651.48" x2="606.48" y2="651.48"/><path class="cls-1" d="M440.76,338.56V155.11S443.83,37.66,609.56,44.9,765.47,155.11,765.47,155.11V338.56" transform="translate(-297.71 -44.33)"/><path class="cls-1" d="M475.13,75.11" transform="translate(-297.71 -44.33)"/><path class="cls-2" d="M538.36,26" transform="translate(-297.71 -44.33)"/><path class="cls-2" d="M669.72,26" transform="translate(-297.71 -44.33)"/><path class="cls-1" d="M732.33,75.11" transform="translate(-297.71 -44.33)"/><path class="cls-1" d="M765.47,155.11" transform="translate(-297.71 -44.33)"/><path class="cls-1" d="M765.47,338.56" transform="translate(-297.71 -44.33)"/><polygon class="cls-3" points="34.42 294.23 17.21 311.15 0 294.23 17.21 277.31 34.42 294.23"/><polygon class="cls-3" points="34.42 734.75 17.21 751.67 0 734.75 17.21 717.84 34.42 734.75"/><polygon class="cls-3" points="623.69 734.75 606.48 751.67 589.27 734.75 606.48 717.84 623.69 734.75"/><polygon class="cls-3" points="623.69 294.23 606.48 311.15 589.27 294.23 606.48 277.31 623.69 294.23"/><polygon class="cls-3" points="160.25 294.23 143.04 311.15 125.83 294.23 143.04 277.31 160.25 294.23"/><polygon class="cls-3" points="484.97 294.23 467.76 311.15 450.55 294.23 467.76 277.31 484.97 294.23"/><polygon class="cls-3" points="34.42 651.48 17.21 668.4 0 651.48 17.21 634.56 34.42 651.48"/><polygon class="cls-3" points="623.69 651.48 606.48 668.4 589.27 651.48 606.48 634.56 623.69 651.48"/><path class="cls-1" d="M623.08,511.31l28.45,69.89H554.81l28.44-69.87s-25.29-20.44-5.63-45.95,48.81-3.32,48.23-2.26S650,486.5,623.08,511.31Z" transform="translate(-297.71 -44.33)"/></svg>