<svg id="Layer_1" data-name="Layer 1" xmlns="http://www.w3.org/2000/svg" viewBox="0 0 611.12 787.61"><defs><style>.cls-1{fill:#2ab5b3;}.cls-2,.cls-3{fill:none;stroke:#2ab5b3;stroke-miterlimit:10;}.cls-2{stroke-width:5px;}.cls-3{stroke-width:16px;}</style></defs><title>guaranteedresults 5pt</title><rect class="cls-1" x="899.4" y="394.54" width="21.42" height="21.42" transform="translate(-334.12 737.87) rotate(-45)"/><rect class="cls-1" x="318.56" y="394.54" width="21.42" height="21.42" transform="translate(-504.24 327.16) rotate(-45)"/><rect class="cls-1" x="610.31" y="786.12" width="21.42" height="21.42" transform="translate(-695.68 648.15) rotate(-45)"/><rect class="cls-1" x="891.76" y="159.46" width="21.42" height="21.42" transform="translate(-170.13 663.62) rotate(-45)"/><rect class="cls-1" x="318.56" y="159.46" width="21.42" height="21.42" transform="translate(-338.01 258.31) rotate(-45)"/><rect class="cls-1" x="608.98" y="28.8" width="21.42" height="21.42" transform="translate(-160.56 425.39) rotate(-45)"/><path class="cls-2" d="M329.27,365.89" transform="translate(-314.13 -24.37)"/><path class="cls-2" d="M619.69,39.51S541.8,148.77,329.27,169.42v226.4s7.79,337,290.42,401" transform="translate(-314.13 -24.37)"/><path class="cls-2" d="M619.69,39.51s77.89,109.26,290.42,129.91v226.4s-7.79,337-290.42,401" transform="translate(-314.13 -24.37)"/><circle class="cls-2" cx="305.56" cy="353.9" r="140.32"/><polyline class="cls-3" points="226.66 371.98 275.62 419.43 387.12 292.46"/></svg>