<svg id="Layer_2" data-name="Layer 2" xmlns="http://www.w3.org/2000/svg" viewBox="0 0 695.58 538.33"><defs><style>.cls-1{fill:none;stroke:#2ab5b3;stroke-miterlimit:10;stroke-width:5px;}.cls-2{fill:#2ab5b3;}</style></defs><title>logo</title><polygon class="cls-1" points="14.46 182.9 346.03 14.77 681.12 182.9 347.79 352.21 14.46 182.9"/><path class="cls-1" d="M394.71,373.5V539s125.81-83.48,224,89.36V487.27" transform="translate(-270.91 -135.05)"/><path class="cls-1" d="M618.7,628.36s86.42-169.31,224-89.36V373.5" transform="translate(-270.91 -135.05)"/><polyline class="cls-1" points="347.79 183.49 511.85 268.88 511.85 523.87"/><rect class="cls-2" x="608.47" y="139.29" width="20.45" height="20.45" transform="translate(-195.42 346.22) rotate(-45)"/><rect class="cls-2" x="832.46" y="363.27" width="20.45" height="20.45" transform="translate(-288.2 570.21) rotate(-45)"/><rect class="cls-2" x="608.47" y="477.04" width="20.45" height="20.45" transform="translate(-434.25 445.15) rotate(-45)"/><rect class="cls-2" x="384.49" y="363.27" width="20.45" height="20.45" transform="translate(-419.4 253.45) rotate(-45)"/><rect class="cls-2" x="832.46" y="532.3" width="20.45" height="20.45" transform="translate(-407.72 619.71) rotate(-45)"/><rect class="cls-2" x="608.47" y="618.13" width="20.45" height="20.45" transform="translate(-534.01 486.47) rotate(-45)"/><rect class="cls-2" x="384.49" y="532.3" width="20.45" height="20.45" transform="translate(-538.92 302.95) rotate(-45)"/><rect class="cls-2" x="772.53" y="648.7" width="20.45" height="20.45" transform="translate(-507.58 611.43) rotate(-45)"/><rect class="cls-2" x="941.8" y="307.73" width="20.45" height="20.45" transform="translate(-216.9 631.26) rotate(-45)"/><rect class="cls-2" x="275.14" y="307.73" width="20.45" height="20.45" transform="translate(-412.16 159.86) rotate(-45)"/><rect class="cls-2" x="608.47" y="308.32" width="20.45" height="20.45" transform="translate(-314.94 395.73) rotate(-45)"/></svg>