<svg id="Layer_1" data-name="Layer 1" xmlns="http://www.w3.org/2000/svg" viewBox="0 0 746.11 746.11"><defs><style>.cls-1{fill:none;stroke:#2ab5b3;stroke-miterlimit:10;stroke-width:5px;}.cls-2{fill:#2ab5b3;}</style></defs><title>setformation 5pt</title><ellipse class="cls-1" cx="197.43" cy="269.02" rx="126.2" ry="113.24"/><ellipse class="cls-1" cx="767.86" cy="358.86" rx="132.44" ry="190.98" transform="translate(-292.94 470.17) rotate(-35.88)"/><ellipse class="cls-1" cx="536.98" cy="591.37" rx="106.17" ry="156.63" transform="translate(-414.84 882.01) rotate(-72.83)"/><rect class="cls-2" x="789.57" y="363.09" width="20.41" height="20.41" transform="translate(-258.01 626.97) rotate(-45)"/><rect class="cls-2" x="825.32" y="264.44" width="20.41" height="20.41" transform="translate(-177.79 623.36) rotate(-45)"/><rect class="cls-2" x="677.37" y="363.09" width="20.41" height="20.41" transform="translate(-290.88 547.63) rotate(-45)"/><rect class="cls-2" x="723.33" y="287.88" width="20.41" height="20.41" transform="translate(-224.24 558.1) rotate(-45)"/><rect class="cls-2" x="729.45" y="218.43" width="20.41" height="20.41" transform="translate(-173.33 542.09) rotate(-45)"/><rect class="cls-2" x="658.85" y="250.01" width="20.41" height="20.41" transform="translate(-216.34 501.42) rotate(-45)"/><rect class="cls-2" x="492.5" y="564.46" width="20.45" height="20.45" transform="translate(-487.43 475.91) rotate(-45)"/><rect class="cls-2" x="442.29" y="614.67" width="20.45" height="20.45" transform="translate(-537.63 455.11) rotate(-45)"/><rect class="cls-2" x="464.63" y="506.12" width="20.45" height="20.45" transform="translate(-454.33 439.11) rotate(-45)"/><rect class="cls-2" x="405.69" y="542.16" width="20.45" height="20.45" transform="translate(-497.08 407.99) rotate(-45)"/><rect class="cls-2" x="368.92" y="371.6" width="20.45" height="20.45" transform="translate(-387.25 332.04) rotate(-45)"/><rect class="cls-2" x="492.5" y="278.88" width="20.45" height="20.45" transform="translate(-285.49 392.27) rotate(-45)"/><rect class="cls-2" x="415.51" y="315.43" width="20.45" height="20.45" transform="translate(-333.89 348.53) rotate(-45)"/><rect class="cls-2" x="456.75" y="363.07" width="20.45" height="20.45" transform="translate(-355.49 391.65) rotate(-45)"/><rect class="cls-2" x="345.52" y="293.05" width="20.45" height="20.45" transform="translate(-338.56 292.48) rotate(-45)"/><rect class="cls-2" x="405.69" y="232.87" width="20.45" height="20.45" transform="translate(-278.38 317.41) rotate(-45)"/><rect class="cls-2" x="862.78" y="392.95" width="20.45" height="20.45" transform="translate(-257.69 687.51) rotate(-45)"/><rect class="cls-2" x="839.76" y="475.78" width="20.45" height="20.45" transform="translate(-323 695.48) rotate(-45)"/><rect class="cls-2" x="737.77" y="447.18" width="20.45" height="20.45" transform="translate(-332.66 614.99) rotate(-45)"/><rect class="cls-2" x="632.41" y="635.09" width="20.45" height="20.45" transform="translate(-496.39 595.53) rotate(-45)"/><rect class="cls-2" x="591.13" y="593.81" width="20.45" height="20.45" transform="translate(-479.29 554.25) rotate(-45)"/><rect class="cls-2" x="541.71" y="635.09" width="20.45" height="20.45" transform="translate(-522.96 531.39) rotate(-45)"/><rect class="cls-2" x="563.33" y="526.39" width="20.45" height="20.45" transform="translate(-439.76 514.85) rotate(-45)"/><circle class="cls-1" cx="373.05" cy="373.05" r="370.55"/></svg>