<svg id="Layer_1" data-name="Layer 1" xmlns="http://www.w3.org/2000/svg" viewBox="0 0 746.11 746.11"><defs><style>.cls-1{fill:none;stroke:#2ab5b3;stroke-miterlimit:10;stroke-width:5px;}.cls-2{fill:#2ab5b3;}</style></defs><title>setformation 5pt</title><ellipse class="cls-1" cx="197.43" cy="269.02" rx="126.2" ry="113.24"/><ellipse class="cls-1" cx="767.86" cy="358.86" rx="132.44" ry="190.98" transform="translate(-292.94 470.17) rotate(-35.88)"/><ellipse class="cls-1" cx="536.98" cy="591.37" rx="106.17" ry="156.63" transform="translate(-414.84 882.01) rotate(-72.83)"/><rect class="cls-2" x="789.57" y="381.17" width="20.41" height="20.41" transform="translate(-270.8 632.27) rotate(-45)"/><rect class="cls-2" x="825.32" y="264.44" width="20.41" height="20.41" transform="translate(-177.79 623.36) rotate(-45)"/><rect class="cls-2" x="677.37" y="363.09" width="20.41" height="20.41" transform="translate(-290.88 547.63) rotate(-45)"/><rect class="cls-2" x="723.33" y="287.88" width="20.41" height="20.41" transform="translate(-224.24 558.1) rotate(-45)"/><rect class="cls-2" x="729.45" y="218.43" width="20.41" height="20.41" transform="translate(-173.33 542.09) rotate(-45)"/><rect class="cls-2" x="658.85" y="250.01" width="20.41" height="20.41" transform="translate(-216.34 501.42) rotate(-45)"/><rect class="cls-2" x="492.5" y="564.46" width="20.45" height="20.45" transform="translate(-487.43 475.91) rotate(-45)"/><rect class="cls-2" x="442.29" y="614.67" width="20.45" height="20.45" transform="translate(-537.63 455.11) rotate(-45)"/><rect class="cls-2" x="464.63" y="506.12" width="20.45" height="20.45" transform="translate(-454.33 439.11) rotate(-45)"/><rect class="cls-2" x="405.69" y="542.16" width="20.45" height="20.45" transform="translate(-497.08 407.99) rotate(-45)"/><rect class="cls-2" x="384.84" y="369.48" width="20.45" height="20.45" transform="translate(-381.09 342.67) rotate(-45)"/><rect class="cls-2" x="492.5" y="278.88" width="20.45" height="20.45" transform="translate(-285.49 392.27) rotate(-45)"/><rect class="cls-2" x="415.51" y="315.43" width="20.45" height="20.45" transform="translate(-333.89 348.53) rotate(-45)"/><rect class="cls-2" x="345.52" y="293.05" width="20.45" height="20.45" transform="translate(-338.56 292.48) rotate(-45)"/><rect class="cls-2" x="405.69" y="232.87" width="20.45" height="20.45" transform="translate(-278.38 317.41) rotate(-45)"/><rect class="cls-2" x="862.78" y="392.95" width="20.45" height="20.45" transform="translate(-257.69 687.51) rotate(-45)"/><rect class="cls-2" x="825.3" y="495.18" width="20.45" height="20.45" transform="translate(-340.96 690.94) rotate(-45)"/><rect class="cls-2" x="737.77" y="447.18" width="20.45" height="20.45" transform="translate(-332.66 614.99) rotate(-45)"/><rect class="cls-2" x="632.41" y="635.09" width="20.45" height="20.45" transform="translate(-496.39 595.53) rotate(-45)"/><rect class="cls-2" x="591.13" y="593.81" width="20.45" height="20.45" transform="translate(-479.29 554.25) rotate(-45)"/><rect class="cls-2" x="541.71" y="635.09" width="20.45" height="20.45" transform="translate(-522.96 531.39) rotate(-45)"/><rect class="cls-2" x="563.33" y="526.39" width="20.45" height="20.45" transform="translate(-439.76 514.85) rotate(-45)"/><circle class="cls-1" cx="373.05" cy="373.05" r="370.55"/><polyline class="cls-1" points="127.44 255.38 115.19 309.43 166.76 331.81 127.44 255.38"/><path class="cls-1" d="M343.49,357.32" transform="translate(-228.3 -47.89)"/><polyline class="cls-1" points="511.36 250.19 607.22 226.76 614.25 269.02"/><rect class="cls-2" x="832.33" y="306.68" width="20.45" height="20.45" transform="translate(-205.61 640.7) rotate(-45)"/><rect class="cls-2" x="795.89" y="420.38" width="20.45" height="20.45" transform="translate(-296.68 648.24) rotate(-45)"/><polyline class="cls-1" points="410.5 526.8 373.05 556.15 345.25 488.72 408.72 526.8 414.33 597.43 373.05 556.15 323.63 597.43 224.22 577 274.42 526.8 246.55 468.45 187.61 504.49 224.22 577 246.55 468.45"/><rect class="cls-2" x="626.8" y="564.46" width="20.45" height="20.45" transform="translate(-448.09 570.87) rotate(-45)"/><rect class="cls-2" x="333.27" y="347.09" width="20.45" height="20.45" transform="translate(-380.36 299.65) rotate(-45)"/><path class="cls-1" d="M687.57,373.29" transform="translate(-228.3 -47.89)"/><path class="cls-1" d="M647.91,357.32" transform="translate(-228.3 -47.89)"/><line class="cls-1" x1="571.48" y1="343.48" x2="505.23" y2="250.19"/><line class="cls-1" x1="644.7" y1="355.28" x2="562.46" y2="387.51"/><polyline class="cls-1" points="459.27 325.4 577.81 382.72 607.22 457.51"/><path class="cls-1" d="M647.91,357.32" transform="translate(-228.3 -47.89)"/><path class="cls-1" d="M669.06,260.22" transform="translate(-228.3 -47.89)"/><polyline class="cls-1" points="571.48 343.48 614.25 269.02 505.23 250.19 511.36 180.75 440.75 212.32 505.23 250.19 459.27 325.4 644.7 355.28 607.22 457.51 519.69 409.51 562.46 387.51"/><line class="cls-1" x1="511.36" y1="180.75" x2="607.22" y2="226.76"/><polygon class="cls-1" points="274.42 526.8 323.63 597.43 345.25 488.72 274.42 526.8"/><rect class="cls-2" x="483.05" y="363.07" width="20.45" height="20.45" transform="translate(-347.79 410.24) rotate(-45)"/><polyline class="cls-1" points="264.97 325.4 166.76 331.81 195.69 280.82 197.43 277.77 187.61 195.21 127.44 255.38 197.43 277.77 274.42 241.22 264.97 325.4 200.93 284.56"/></svg>