<svg id="Layer_2" data-name="Layer 2" xmlns="http://www.w3.org/2000/svg" viewBox="0 0 676.52 705.32"><defs><style>.cls-1{fill:none;stroke:#2ab5b3;stroke-miterlimit:10;stroke-width:5px;}.cls-2{fill:#2ab5b3;}</style></defs><title>whatwedo 5pt</title><polyline class="cls-1" points="421.55 481.99 421.55 626.27 374.33 695.78 339.24 695.78"/><polyline class="cls-1" points="257.51 481.99 257.51 626.27 304.73 695.78 339.82 695.78"/><line class="cls-1" x1="492.38" y1="474.12" x2="571.07" y2="554.13"/><line class="cls-1" x1="554.02" y1="318.9" x2="666.82" y2="318.9"/><line class="cls-1" x1="492.38" y1="168.51" x2="571.07" y2="88.51"/><line class="cls-1" x1="339.24" y1="121.02" x2="339.82" y2="9.54"/><line class="cls-1" x1="186.77" y1="168.51" x2="109.38" y2="88.51"/><line class="cls-1" x1="121.19" y1="318.9" x2="9.7" y2="318.9"/><line class="cls-1" x1="186.77" y1="474.12" x2="109.38" y2="554.13"/><line class="cls-1" x1="257.51" y1="564.62" x2="421.55" y2="564.62"/><line class="cls-1" x1="257.51" y1="626.27" x2="421.55" y2="626.27"/><path class="cls-1" d="M625,281.3" transform="translate(-288.72 -74.74)"/><path class="cls-1" d="M546.81,556.76a171.38,171.38,0,0,1-92.28-151.9c0-93.9,77.27-171.16,171.17-171.16S796.87,311,796.87,404.86a171.36,171.36,0,0,1-87.54,149.35" transform="translate(-288.72 -74.74)"/><path class="cls-1" d="M637.41,282.81A110.84,110.84,0,0,1,748.25,393.64" transform="translate(-288.72 -74.74)"/><polygon class="cls-2" points="267.21 481.72 257.51 491.25 247.81 481.72 257.51 472.18 267.21 481.72"/><polygon class="cls-2" points="349.52 9.54 339.82 19.07 330.12 9.54 339.82 0 349.52 9.54"/><polygon class="cls-2" points="119.08 88.51 109.38 98.04 99.68 88.51 109.38 78.97 119.08 88.51"/><polygon class="cls-2" points="19.4 318.9 9.7 328.44 0 318.9 9.7 309.37 19.4 318.9"/><polygon class="cls-2" points="119.08 554.13 109.38 563.67 99.68 554.13 109.38 544.6 119.08 554.13"/><polygon class="cls-2" points="431.25 481.72 421.55 491.25 411.85 481.72 421.55 472.18 431.25 481.72"/><polygon class="cls-2" points="431.25 564.62 421.55 574.16 411.85 564.62 421.55 555.09 431.25 564.62"/><polygon class="cls-2" points="431.25 626.27 421.55 635.8 411.85 626.27 421.55 616.73 431.25 626.27"/><polygon class="cls-2" points="383.63 695.78 373.93 705.32 364.23 695.78 373.93 686.25 383.63 695.78"/><polygon class="cls-2" points="314.43 695.78 304.73 705.32 295.03 695.78 304.73 686.25 314.43 695.78"/><polygon class="cls-2" points="267.21 626.27 257.51 635.8 247.81 626.27 257.51 616.73 267.21 626.27"/><polygon class="cls-2" points="267.21 564.62 257.51 574.16 247.81 564.62 257.51 555.09 267.21 564.62"/><polygon class="cls-2" points="469.22 320.49 459.52 330.02 449.82 320.49 459.52 310.95 469.22 320.49"/><polygon class="cls-2" points="359.22 208.07 349.52 217.6 339.82 208.07 349.52 198.53 359.22 208.07"/><polygon class="cls-2" points="580.77 555.09 571.07 564.62 561.37 555.09 571.07 545.55 580.77 555.09"/><polygon class="cls-2" points="676.52 318.9 666.82 328.44 657.12 318.9 666.82 309.37 676.52 318.9"/><polygon class="cls-2" points="579.38 91.01 569.68 100.55 559.98 91.01 569.68 81.47 579.38 91.01"/><polygon class="cls-2" points="196.47 474.12 186.77 483.66 177.07 474.12 186.77 464.59 196.47 474.12"/><polygon class="cls-2" points="563.72 318.9 554.02 328.44 544.32 318.9 554.02 309.37 563.72 318.9"/><polygon class="cls-2" points="502.07 168.51 492.38 178.05 482.68 168.51 492.38 158.98 502.07 168.51"/><polygon class="cls-2" points="348.94 121.02 339.24 130.56 329.54 121.02 339.24 111.49 348.94 121.02"/><polygon class="cls-2" points="196.47 168.51 186.77 178.05 177.07 168.51 186.77 158.98 196.47 168.51"/><polygon class="cls-2" points="130.89 318.9 121.19 328.44 111.49 318.9 121.19 309.37 130.89 318.9"/><polygon class="cls-2" points="502.07 474.12 492.38 483.66 482.68 474.12 492.38 464.59 502.07 474.12"/></svg>